<?xml version="1.0" encoding="UTF-8" standalone="no"?>
<!-- Generated by IcoMoon.io -->

<svg
   xmlns:dc="http://purl.org/dc/elements/1.1/"
   xmlns:cc="http://creativecommons.org/ns#"
   xmlns:rdf="http://www.w3.org/1999/02/22-rdf-syntax-ns#"
   xmlns:svg="http://www.w3.org/2000/svg"
   xmlns="http://www.w3.org/2000/svg"
   xmlns:sodipodi="http://sodipodi.sourceforge.net/DTD/sodipodi-0.dtd"
   xmlns:inkscape="http://www.inkscape.org/namespaces/inkscape"
   version="1.1"
   width="30"
   height="28"
   viewBox="0 0 30 28"
   id="svg2"
   inkscape:version="0.48.5 r10040"
   sodipodi:docname="image-text-bottom.svg">
  <metadata
     id="metadata11">
    <rdf:RDF>
      <cc:Work
         rdf:about="">
        <dc:format>image/svg+xml</dc:format>
        <dc:type
           rdf:resource="http://purl.org/dc/dcmitype/StillImage" />
        <dc:title></dc:title>
      </cc:Work>
    </rdf:RDF>
  </metadata>
  <defs
     id="defs9" />
  <sodipodi:namedview
     pagecolor="#ffffff"
     bordercolor="#666666"
     borderopacity="1"
     objecttolerance="10"
     gridtolerance="10"
     guidetolerance="10"
     inkscape:pageopacity="0"
     inkscape:pageshadow="2"
     inkscape:window-width="1680"
     inkscape:window-height="1028"
     id="namedview7"
     showgrid="false"
     inkscape:zoom="1.4142136"
     inkscape:cx="359.56615"
     inkscape:cy="49.598247"
     inkscape:window-x="-8"
     inkscape:window-y="-8"
     inkscape:window-maximized="1"
     inkscape:current-layer="svg2"
     showguides="true"
     inkscape:guide-bbox="true">
    <sodipodi:guide
       orientation="0,1"
       position="8,8.046875"
       id="guide3068" />
    <sodipodi:guide
       orientation="0,1"
       position="10.835937,24.047"
       id="guide3072" />
  </sodipodi:namedview>
  <g
     id="icomoon-ignore" />
  <path
     style="fill:#000000"
     d="m 28,3.957035 0,13.498773 c 6.67e-4,0.136 -0.05692,0.245083 -0.15625,0.34375 -0.09933,0.09867 -0.208417,0.15625 -0.34375,0.15625 l -25,0 C 2.364,17.956471 2.2549167,17.898887 2.15625,17.799554 2.0575833,17.700221 2,17.591137 2,17.455804 L 2,3.9492187 0,3.953125 0,17.455804 c -6.6666667e-4,0.688 0.22875,1.291917 0.71875,1.78125 0.49,0.489333 1.0939167,0.71875 1.78125,0.71875 l 25,0 c 0.688,6.67e-4 1.291917,-0.22875 1.78125,-0.71875 C 29.770583,18.747054 30,18.143137 30,17.455804 L 30,3.9609375 z M 9.839339,3.958202 C 9.6964878,4.3732299 9.4583748,4.7474314 9.125,5.080806 8.5416667,5.664139 7.8333333,5.955806 7,5.955806 c -0.8333333,0 -1.5416667,-0.291667 -2.125,-0.875 C 4.5422382,4.7480443 4.3043881,4.3746059 4.1614499,3.960491 M 17.999387,3.9564184 11.5,10.455804 9,7.955806 l -5,4.999998 0,3 22,0 0,-6.999998 -5.003294,-5.0032936 z"
     id="path5"
     inkscape:connector-curvature="0"
     sodipodi:nodetypes="cccscsscccsscsscccssscccccccccc" />
  <g
     transform="translate(0.966359,-0.05740019)"
     id="icomoon-ignore-1" />
  <path
     style="fill:#000000"
     inkscape:connector-curvature="0"
     d="m 29,22.967068 0,2 c 0,0.270667 -0.099,0.505 -0.297,0.703 -0.198001,0.198 -0.432334,0.297 -0.703,0.297 l -25.9999995,0 c -0.2706667,0 -0.505,-0.099 -0.703,-0.297 -0.198,-0.198 -0.297,-0.432333 -0.297,-0.703 l 0,-2 c 0,-0.270667 0.099,-0.505 0.297,-0.703 0.198,-0.198 0.4323333,-0.297 0.703,-0.297 l 25.9999995,0 c 0.270667,0 0.505,0.099 0.703,0.297 0.198,0.198 0.297,0.432333 0.297,0.703 z"
     id="path5-7"
     sodipodi:nodetypes="sssssssssssss" />
</svg>
