<?xml version="1.0" encoding="UTF-8" standalone="no"?>
<!-- Generated by IcoMoon.io -->

<svg
   xmlns:dc="http://purl.org/dc/elements/1.1/"
   xmlns:cc="http://creativecommons.org/ns#"
   xmlns:rdf="http://www.w3.org/1999/02/22-rdf-syntax-ns#"
   xmlns:svg="http://www.w3.org/2000/svg"
   xmlns="http://www.w3.org/2000/svg"
   xmlns:sodipodi="http://sodipodi.sourceforge.net/DTD/sodipodi-0.dtd"
   xmlns:inkscape="http://www.inkscape.org/namespaces/inkscape"
   version="1.1"
   width="30"
   height="28"
   viewBox="0 0 30 28"
   id="svg2"
   inkscape:version="0.48.5 r10040"
   sodipodi:docname="image-text-top.svg">
  <metadata
     id="metadata11">
    <rdf:RDF>
      <cc:Work
         rdf:about="">
        <dc:format>image/svg+xml</dc:format>
        <dc:type
           rdf:resource="http://purl.org/dc/dcmitype/StillImage" />
        <dc:title></dc:title>
      </cc:Work>
    </rdf:RDF>
  </metadata>
  <defs
     id="defs9" />
  <sodipodi:namedview
     pagecolor="#ffffff"
     bordercolor="#666666"
     borderopacity="1"
     objecttolerance="10"
     gridtolerance="10"
     guidetolerance="10"
     inkscape:pageopacity="0"
     inkscape:pageshadow="2"
     inkscape:window-width="1680"
     inkscape:window-height="1028"
     id="namedview7"
     showgrid="false"
     inkscape:zoom="16"
     inkscape:cx="10.416122"
     inkscape:cy="25.756303"
     inkscape:window-x="-8"
     inkscape:window-y="-8"
     inkscape:window-maximized="1"
     inkscape:current-layer="svg2"
     showguides="true"
     inkscape:guide-bbox="true">
    <sodipodi:guide
       orientation="0,1"
       position="25.986174,14.037174"
       id="guide3066" />
  </sodipodi:namedview>
  <g
     id="icomoon-ignore" />
  <path
     d="M 10,9 C 10,9.8333333 9.7083333,10.541667 9.125,11.125 8.5416667,11.708333 7.8333333,12 7,12 6.1666667,12 5.4583333,11.708333 4.875,11.125 4.2916667,10.541667 4,9.8333333 4,9 4,8.1666667 4.2916667,7.4583333 4.875,6.875 5.4583333,6.2916667 6.1666667,6 7,6 7.8333333,6 8.5416667,6.2916667 9.125,6.875 9.7083333,7.4583333 10,8.1666667 10,9 z M 14.035156,13.964844 19.5,8.5 24.964844,13.964844 z M 0,13.960937 C 0,10.807292 0,7.6536458 0,4.5 0,3.8126667 0.24466667,3.224 0.734,2.734 1.2233333,2.244 1.812,1.9993333 2.5,2 l 25,0 c 0.687333,0 1.276,0.2446667 1.766,0.734 0.49,0.4893333 0.734667,1.078 0.734,1.766 l 0,9.464844 -2,0 L 28,4.5 C 28,4.3646667 27.950667,4.2473333 27.852,4.148 27.753333,4.0486667 27.636,3.9993333 27.5,4 L 2.5,4 C 2.3646667,4 2.2473333,4.0493333 2.148,4.148 2.0486667,4.2466667 1.9993333,4.364 2,4.5 c 0,3.1549479 0,6.309896 0,9.464844 z"
     id="path5"
     inkscape:connector-curvature="0"
     style="fill:#000000"
     sodipodi:nodetypes="sssssssssccccccscsscccsscssccc" />
  <g
     transform="translate(0.966359,-0.05740019)"
     id="icomoon-ignore-1" />
  <path
     style="fill:#000000"
     inkscape:connector-curvature="0"
     d="m 29,22.967068 0,2 c 0,0.270667 -0.099,0.505 -0.297,0.703 -0.198001,0.198 -0.432334,0.297 -0.703,0.297 l -25.9999995,0 c -0.2706667,0 -0.505,-0.099 -0.703,-0.297 -0.198,-0.198 -0.297,-0.432333 -0.297,-0.703 l 0,-2 c 0,-0.270667 0.099,-0.505 0.297,-0.703 0.198,-0.198 0.4323333,-0.297 0.703,-0.297 l 25.9999995,0 c 0.270667,0 0.505,0.099 0.703,0.297 0.198,0.198 0.297,0.432333 0.297,0.703 z m 0,-6 0,2 c 0,0.270667 -0.099,0.505 -0.297,0.703 -0.198001,0.198 -0.432334,0.297 -0.703,0.297 l -25.9999995,0 c -0.2706667,0 -0.505,-0.099 -0.703,-0.297 -0.198,-0.198 -0.297,-0.432333 -0.297,-0.703 l 0,-2 c 0,-0.270667 0.099,-0.505 0.297,-0.703 0.198,-0.198 0.4323333,-0.297 0.703,-0.297 l 25.9999995,0 c 0.270667,0 0.505,0.099 0.703,0.297 0.198,0.198 0.297,0.432333 0.297,0.703 z"
     id="path5-7"
     sodipodi:nodetypes="ssssssssssssssssssssssssss" />
</svg>
