<?xml version="1.0" encoding="UTF-8" standalone="no"?>
<!-- Generated by IcoMoon.io -->

<svg
   xmlns:dc="http://purl.org/dc/elements/1.1/"
   xmlns:cc="http://creativecommons.org/ns#"
   xmlns:rdf="http://www.w3.org/1999/02/22-rdf-syntax-ns#"
   xmlns:svg="http://www.w3.org/2000/svg"
   xmlns="http://www.w3.org/2000/svg"
   xmlns:sodipodi="http://sodipodi.sourceforge.net/DTD/sodipodi-0.dtd"
   xmlns:inkscape="http://www.inkscape.org/namespaces/inkscape"
   version="1.1"
   width="30"
   height="28"
   viewBox="0 0 30 28"
   id="svg2"
   inkscape:version="0.48.5 r10040"
   sodipodi:docname="image.svg">
  <metadata
     id="metadata11">
    <rdf:RDF>
      <cc:Work
         rdf:about="">
        <dc:format>image/svg+xml</dc:format>
        <dc:type
           rdf:resource="http://purl.org/dc/dcmitype/StillImage" />
        <dc:title></dc:title>
      </cc:Work>
    </rdf:RDF>
  </metadata>
  <defs
     id="defs9" />
  <sodipodi:namedview
     pagecolor="#ffffff"
     bordercolor="#666666"
     borderopacity="1"
     objecttolerance="10"
     gridtolerance="10"
     guidetolerance="10"
     inkscape:pageopacity="0"
     inkscape:pageshadow="2"
     inkscape:window-width="1680"
     inkscape:window-height="1028"
     id="namedview7"
     showgrid="false"
     inkscape:zoom="4"
     inkscape:cx="47.232586"
     inkscape:cy="4.9404916"
     inkscape:window-x="-8"
     inkscape:window-y="-8"
     inkscape:window-maximized="1"
     inkscape:current-layer="svg2" />
  <g
     id="icomoon-ignore" />
  <path
     d="M 24.898437,13.898437 26,15 l 0,7 -22,0 0,-3 5,-5 2.5,2.5 2.597656,-2.597656 z M 2,13.91112 2,23.5 c 0,0.135333 0.049333,0.252667 0.148,0.352 C 2.246667,23.95133 2.364,24.000667 2.5,24 l 25,0 c 0.135333,0 0.252667,-0.04933 0.352,-0.148 C 27.95133,23.75333 28.000667,23.636 28,23.5 l 0,-9.59375 2,0 0,9.59375 c 0,0.687333 -0.244667,1.276 -0.734,1.766 -0.489333,0.49 -1.078,0.734667 -1.766,0.734 l -25,0 C 1.8126667,26 1.224,25.755333 0.734,25.266 0.244,24.776667 -6.6666667e-4,24.188 0,23.5 l 0,-9.600803 z"
     id="path5"
     inkscape:connector-curvature="0"
     style="fill:#000000"
     sodipodi:nodetypes="ccccccccccsscsscccsscssccc" />
  <g
     transform="translate(0.966359,-0.05740019)"
     id="icomoon-ignore-1" />
  <path
     style="fill:#000000"
     inkscape:connector-curvature="0"
     d="m 28.876431,8.987564 0,2 c 0,0.270667 -0.099,0.505 -0.297,0.703 -0.198001,0.198 -0.432334,0.297 -0.703,0.297 l -26.0000001,0 c -0.2706667,0 -0.505,-0.099 -0.703,-0.297 -0.19799996,-0.198 -0.29699996,-0.432333 -0.29699996,-0.703 l 0,-2 c 0,-0.2706667 0.099,-0.505 0.29699996,-0.703 0.198,-0.198 0.4323333,-0.297 0.703,-0.297 l 26.0000001,0 c 0.270667,0 0.505,0.099 0.703,0.297 0.198,0.198 0.297,0.4323333 0.297,0.703 z m 0,-6 0,2 c 0,0.2706667 -0.099,0.505 -0.297,0.703 -0.198001,0.198 -0.432334,0.297 -0.703,0.297 l -26.0000001,0 c -0.2706667,0 -0.505,-0.099 -0.703,-0.297 -0.19799996,-0.198 -0.29699996,-0.4323333 -0.29699996,-0.703 l 0,-2 c 0,-0.2706667 0.099,-0.505 0.29699996,-0.703 0.198,-0.198 0.4323333,-0.297 0.703,-0.297 l 26.0000001,0 c 0.270667,0 0.505,0.099 0.703,0.297 0.198,0.198 0.297,0.4323333 0.297,0.703 z"
     id="path5-7"
     sodipodi:nodetypes="ssssssssssssssssssssssssss" />
  <path
     sodipodi:nodetypes="ccccccccccsscsscccsscssccc"
     style="fill:#000000"
     inkscape:connector-curvature="0"
     id="path3064"
     d="M 24.898437,13.898437 26,15 l 0,7 -22,0 0,-3 5,-5 2.5,2.5 2.597656,-2.597656 z M 2,13.91112 2,23.5 c 0,0.135333 0.049333,0.252667 0.148,0.352 C 2.246667,23.95133 2.364,24.000667 2.5,24 l 25,0 c 0.135333,0 0.252667,-0.04933 0.352,-0.148 C 27.95133,23.75333 28.000667,23.636 28,23.5 l 0,-9.59375 2,0 0,9.59375 c 0,0.687333 -0.244667,1.276 -0.734,1.766 -0.489333,0.49 -1.078,0.734667 -1.766,0.734 l -25,0 C 1.8126667,26 1.224,25.755333 0.734,25.266 0.244,24.776667 -6.6666667e-4,24.188 0,23.5 l 0,-9.600803 z" />
</svg>
